<svg xmlns="http://www.w3.org/2000/svg" xmlns:xlink="http://www.w3.org/1999/xlink" viewBox="0 0 512 512" width="512" height="512" preserveAspectRatio="xMidYMid meet" style="width: 512px; height: 512px; transform: translate3d(0px, 0px, 0px); content-visibility: visible;"><defs><clipPath id="__lottie_element_2"><rect width="512" height="512" x="0" y="0" fill="none"/></clipPath><clipPath id="__lottie_element_4"><path d="M0,0 L100,0 L100,100 L0,100z" fill="none"/></clipPath><linearGradient id="__lottie_element_10" spreadMethod="pad" gradientUnits="userSpaceOnUse" x1="30.190000534057617" y1="7.5" x2="53.439998626708984" y2="65.62000274658203"><stop offset="37%" stop-color="rgb(245,97,214)" stop-opacity="1"/><stop offset="88%" stop-color="rgb(250,94,217)" stop-opacity="0"/></linearGradient><radialGradient id="__lottie_element_11" spreadMethod="pad" gradientUnits="userSpaceOnUse" cx="65.80999755859375" cy="56.060001373291016" r="54.24804401644073" fx="65.80999755859375" fy="56.060001373291016"><stop offset="0%" stop-color="rgb(168,130,247)" stop-opacity="1"/><stop offset="100%" stop-color="rgb(166,133,250)" stop-opacity="0"/></radialGradient><radialGradient id="__lottie_element_12" spreadMethod="pad" gradientUnits="userSpaceOnUse" cx="17.059999465942383" cy="63.380001068115234" r="44.01455380354973" fx="17.059999465942383" fy="63.380001068115234"><stop offset="0%" stop-color="rgb(87,130,252)" stop-opacity="1"/><stop offset="100%" stop-color="rgb(87,130,252)" stop-opacity="0"/></radialGradient></defs><g clip-path="url(#__lottie_element_2)"><g clip-path="url(#__lottie_element_4)" transform="matrix(5.119999885559082,0,0,5.119999885559082,0,0)" opacity="1" style="display: block;"><g transform="matrix(1.333299994468689,0,0,1.333299994468689,0,0)" opacity="1" style="display: block;"><g opacity="1" transform="matrix(1,0,0,1,0,0)"><g opacity="1" transform="matrix(1,0,0,1,0,0)"><path fill="rgb(186,76,214)" fill-opacity="1" d=" M21.75,7.5 C21.75,7.5 53.25,7.5 53.25,7.5 C61.119998931884766,7.5 67.5,15.369999885559082 67.5,21.75 C67.5,21.75 67.5,53.25 67.5,53.25 C67.5,61.119998931884766 61.119998931884766,67.5 53.25,67.5 C53.25,67.5 21.75,67.5 21.75,67.5 C13.880000114440918,67.5 7.5,59.630001068115234 7.5,53.25 C7.5,53.25 7.5,21.75 7.5,21.75 C7.5,13.880000114440918 13.880000114440918,7.5 21.75,7.5 C21.75,7.5 21.75,7.5 21.75,7.5z"/></g><g opacity="1" transform="matrix(1,0,0,1,0,0)"><path fill="url(#__lottie_element_10)" fill-opacity="1" d=" M21.75,7.5 C21.75,7.5 53.25,7.5 53.25,7.5 C61.119998931884766,7.5 67.5,15.369999885559082 67.5,21.75 C67.5,21.75 67.5,53.25 67.5,53.25 C67.5,61.119998931884766 61.119998931884766,67.5 53.25,67.5 C53.25,67.5 21.75,67.5 21.75,67.5 C13.880000114440918,67.5 7.5,59.630001068115234 7.5,53.25 C7.5,53.25 7.5,21.75 7.5,21.75 C7.5,13.880000114440918 13.880000114440918,7.5 21.75,7.5 C21.75,7.5 21.75,7.5 21.75,7.5z"/></g><g opacity="1" transform="matrix(1,0,0,1,0,0)"><path fill="url(#__lottie_element_11)" fill-opacity="1" d=" M21.75,7.5 C21.75,7.5 53.25,7.5 53.25,7.5 C61.119998931884766,7.5 67.5,15.369999885559082 67.5,21.75 C67.5,21.75 67.5,53.25 67.5,53.25 C67.5,61.119998931884766 61.119998931884766,67.5 53.25,67.5 C53.25,67.5 21.75,67.5 21.75,67.5 C13.880000114440918,67.5 7.5,59.630001068115234 7.5,53.25 C7.5,53.25 7.5,21.75 7.5,21.75 C7.5,13.880000114440918 13.880000114440918,7.5 21.75,7.5 C21.75,7.5 21.75,7.5 21.75,7.5z"/></g><g opacity="1" transform="matrix(1,0,0,1,0,0)"><path fill="url(#__lottie_element_12)" fill-opacity="1" d=" M21.75,7.5 C21.75,7.5 53.25,7.5 53.25,7.5 C61.119998931884766,7.5 67.5,15.369999885559082 67.5,21.75 C67.5,21.75 67.5,53.25 67.5,53.25 C67.5,61.119998931884766 61.119998931884766,67.5 53.25,67.5 C53.25,67.5 21.75,67.5 21.75,67.5 C13.880000114440918,67.5 7.5,59.630001068115234 7.5,53.25 C7.5,53.25 7.5,21.75 7.5,21.75 C7.5,13.880000114440918 13.880000114440918,7.5 21.75,7.5 C21.75,7.5 21.75,7.5 21.75,7.5z"/></g><g opacity="1" transform="matrix(1,0,0,1,0,0)"><path fill="rgb(255,255,255)" fill-opacity="1" d=" M43.2400016784668,43.66999816894531 C43.2400016784668,46.810001373291016 40.689998626708984,49.36000061035156 37.54999923706055,49.36000061035156 C34.40999984741211,49.36000061035156 31.8700008392334,46.810001373291016 31.8700008392334,43.66999816894531 C31.8700008392334,40.529998779296875 34.40999984741211,37.9900016784668 37.54999923706055,37.9900016784668 C40.689998626708984,37.9900016784668 43.2400016784668,40.529998779296875 43.2400016784668,43.66999816894531"/></g><g opacity="1" transform="matrix(1,0,0,1,0,0)"><path fill="rgb(255,255,255)" fill-opacity="1" d=" M60.86000061035156,23.770000457763672 C60.29999923706055,23.18000030517578 59.400001525878906,23.100000381469727 58.7400016784668,23.579999923706055 C58.7400016784668,23.579999923706055 42.52000045776367,35.56999969482422 42.52000045776367,35.56999969482422 C42.029998779296875,35.93000030517578 42.09000015258789,36.68000030517578 42.56999969482422,37.04999923706055 C43.72999954223633,37.93000030517578 44.650001525878906,39.119998931884766 45.220001220703125,40.47999954223633 C45.47999954223633,41.099998474121094 46.33000183105469,41.33000183105469 46.790000915527344,40.84000015258789 C46.790000915527344,40.84000015258789 60.86000061035156,25.979999542236328 60.86000061035156,25.979999542236328 C61.45000076293945,25.360000610351562 61.45000076293945,24.389999389648438 60.86000061035156,23.770000457763672 C60.86000061035156,23.770000457763672 60.86000061035156,23.770000457763672 60.86000061035156,23.770000457763672z"/></g><g opacity="1" transform="matrix(1,0,0,1,0,0)"><path fill="rgb(255,255,255)" fill-opacity="1" d=" M52.220001220703125,39.349998474121094 C52.08000183105469,39.52000045776367 52.040000915527344,39.75 52.099998474121094,39.959999084472656 C52.61000061035156,41.7599983215332 52.880001068115234,43.68000030517578 52.880001068115234,45.68000030517578 C52.880001068115234,46.93000030517578 53.880001068115234,47.959999084472656 55.119998931884766,48 C55.119998931884766,48 55.119998931884766,48 55.119998931884766,48 C55.119998931884766,48 55.119998931884766,48 55.119998931884766,48 C55.119998931884766,48 57.36000061035156,48 57.36000061035156,48 C57.36000061035156,48 57.36000061035156,48 57.36000061035156,48 C57.36000061035156,48 57.369998931884766,47.9900016784668 57.369998931884766,47.9900016784668 C58.56999969482422,47.900001525878906 59.5099983215332,46.900001525878906 59.5099983215332,45.68000030517578 C59.5099983215332,41.81999969482422 58.619998931884766,38.150001525878906 57.029998779296875,34.91999816894531 C56.81999969482422,34.5 56.25,34.45000076293945 55.95000076293945,34.810001373291016 C55.95000076293945,34.810001373291016 52.220001220703125,39.349998474121094 52.220001220703125,39.349998474121094z M49.43000030517578,27.110000610351562 C49.790000915527344,26.850000381469727 49.79999923706055,26.299999237060547 49.43000030517578,26.049999237060547 C45.9900016784668,23.690000534057617 41.880001068115234,22.309999465942383 37.43000030517578,22.309999465942383 C37.279998779296875,22.309999465942383 37.130001068115234,22.31999969482422 36.97999954223633,22.31999969482422 C36.79999923706055,22.31999969482422 36.619998931884766,22.309999465942383 36.43000030517578,22.309999465942383 C24.549999237060547,22.309999465942383 15.359999656677246,33.029998779296875 15.359999656677246,45.68000030517578 C15.359999656677246,46.959999084472656 16.389999389648438,48 17.670000076293945,48 C18.950000762939453,48 19.979999542236328,46.959999084472656 19.979999542236328,45.68000030517578 C19.979999542236328,35.349998474121094 27.700000762939453,27.190000534057617 37,26.940000534057617 C40.4900016784668,27.010000228881836 42.790000915527344,27.760000228881836 44.540000915527344,28.889999389648438 C44.79999923706055,29.059999465942383 45.04999923706055,29.239999771118164 45.29999923706055,29.43000030517578 C45.540000915527344,29.610000610351562 45.880001068115234,29.639999389648438 46.119998931884766,29.459999084472656 C46.119998931884766,29.459999084472656 49.43000030517578,27.110000610351562 49.43000030517578,27.110000610351562z"/></g></g></g></g></g></svg>